# Blender v2.77 (sub 0) OBJ File: ''
# www.blender.org
mtllib gem.mtl
o group_0_ID4
v -0.546730 0.249057 0.067831
v -0.542642 0.104933 0.271402
v -0.615063 0.018936 -0.000026
v -0.615063 0.018936 -0.000026
v -0.542642 0.104933 0.271402
v -0.546730 0.249057 0.067831
v -0.615063 0.018936 -0.000026
v -0.546730 0.249057 0.067831
v -0.542642 0.104933 0.271402
v -0.546730 0.249057 0.067831
v -0.615063 0.018936 -0.000026
v -0.546730 0.249057 -0.067884
v -0.546730 0.249057 -0.067884
v -0.615063 0.018936 -0.000026
v -0.546730 0.249057 0.067831
v -0.546730 0.249057 -0.067884
v -0.484914 0.322460 0.163795
v -0.542642 0.104933 0.271402
v -0.546730 0.249057 0.067831
v -0.546730 0.249057 0.067831
v -0.542642 0.104933 0.271402
v -0.484914 0.322460 0.163795
v -0.484914 0.322460 0.163795
v -0.615063 0.018936 -0.000026
v -0.542642 0.104933 0.271402
v -0.505449 0.000119 0.135688
v -0.505449 0.000119 0.135688
v -0.542642 0.104933 0.271402
v -0.615063 0.018936 -0.000026
v -0.505449 0.000119 0.135688
v -0.484914 0.322460 -0.163848
v -0.546730 0.249057 0.067831
v -0.546730 0.249057 -0.067884
v -0.484914 0.322460 0.163795
v -0.397493 0.426268 -0.163848
v -0.397493 0.426268 0.163795
v -0.335678 0.499671 -0.067884
v -0.335678 0.499671 0.067831
v -0.335678 0.499671 0.067831
v -0.335678 0.499671 -0.067884
v -0.397493 0.426268 0.163795
v -0.397493 0.426268 -0.163848
v -0.484914 0.322460 0.163795
v -0.484914 0.322460 -0.163848
v -0.546730 0.249057 0.067831
v -0.546730 0.249057 -0.067884
v -0.397493 0.426268 0.163795
v -0.335678 0.499671 0.067831
v -0.484914 0.322460 -0.163848
v -0.397493 0.426268 -0.163848
v -0.335678 0.499671 -0.067884
v -0.546730 0.249057 -0.067884
v -0.615063 0.018936 -0.000026
v -0.542642 0.104933 -0.271455
v -0.542642 0.104933 -0.271455
v -0.615063 0.018936 -0.000026
v -0.546730 0.249057 -0.067884
v -0.542642 0.104933 -0.271455
v -0.367801 0.312549 0.383832
v -0.542642 0.104933 0.271402
v -0.484914 0.322460 0.163795
v -0.484914 0.322460 0.163795
v -0.542642 0.104933 0.271402
v -0.367801 0.312549 0.383832
v -0.367801 0.312549 0.383832
v -0.505449 0.000119 -0.135741
v -0.615063 0.018936 -0.000026
v -0.505449 0.000119 0.135688
v -0.505449 0.000119 0.135688
v -0.615063 0.018936 -0.000026
v -0.505449 0.000119 -0.135741
v -0.505449 0.000119 -0.135741
v -0.505449 0.000119 0.135688
v -0.542642 0.104933 0.271402
v -0.381818 0.146925 0.327617
v -0.381818 0.146925 0.327617
v -0.542642 0.104933 0.271402
v -0.505449 0.000119 0.135688
v -0.381818 0.146925 0.327617
v -0.192960 0.520164 0.271402
v -0.397493 0.426268 0.163795
v -0.335678 0.499671 0.067831
v -0.335678 0.499671 0.067831
v -0.397493 0.426268 0.163795
v -0.192960 0.520164 0.271402
v -0.192960 0.520164 0.271402
v -0.397493 0.426268 0.163795
v -0.367801 0.312549 0.383832
v -0.484914 0.322460 0.163795
v -0.484914 0.322460 0.163795
v -0.367801 0.312549 0.383832
v -0.397493 0.426268 0.163795
v -0.484914 0.322460 -0.163848
v -0.546730 0.249057 -0.067884
v -0.542642 0.104933 -0.271455
v -0.542642 0.104933 -0.271455
v -0.546730 0.249057 -0.067884
v -0.484914 0.322460 -0.163848
v -0.397493 0.426268 -0.163848
v -0.484914 0.322460 -0.163848
v -0.367801 0.312549 -0.383885
v -0.367801 0.312549 -0.383885
v -0.484914 0.322460 -0.163848
v -0.397493 0.426268 -0.163848
v -0.367801 0.312549 -0.383885
v -0.192960 0.520164 -0.271455
v -0.335678 0.499671 -0.067884
v -0.397493 0.426268 -0.163848
v -0.397493 0.426268 -0.163848
v -0.335678 0.499671 -0.067884
v -0.192960 0.520164 -0.271455
v -0.192960 0.520164 -0.271455
v -0.120538 0.606161 -0.000026
v -0.335678 0.499671 0.067831
v -0.335678 0.499671 -0.067884
v -0.335678 0.499671 -0.067884
v -0.335678 0.499671 0.067831
v -0.120538 0.606161 -0.000026
v -0.120538 0.606161 -0.000026
v -0.542642 0.104933 -0.271455
v -0.615063 0.018936 -0.000026
v -0.505449 0.000119 -0.135741
v -0.505449 0.000119 -0.135741
v -0.615063 0.018936 -0.000026
v -0.542642 0.104933 -0.271455
v -0.367801 0.312549 0.383832
v -0.381818 0.146925 0.327617
v -0.542642 0.104933 0.271402
v -0.542642 0.104933 0.271402
v -0.381818 0.146925 0.327617
v -0.367801 0.312549 0.383832
v -0.505449 0.000119 -0.135741
v -0.505449 0.000119 0.135688
v -0.000785 0.003470 -0.000026
v -0.000785 0.003470 -0.000026
v -0.505449 0.000119 0.135688
v -0.505449 0.000119 -0.135741
v -0.000785 0.003470 -0.000026
v -0.000785 0.003470 -0.000026
v -0.505449 0.000119 0.135688
v -0.381818 0.146925 0.327617
v -0.381818 0.146925 0.327617
v -0.505449 0.000119 0.135688
v -0.000785 0.003470 -0.000026
v -0.192960 0.520164 0.271402
v -0.367801 0.312549 0.383832
v -0.397493 0.426268 0.163795
v -0.397493 0.426268 0.163795
v -0.367801 0.312549 0.383832
v -0.192960 0.520164 0.271402
v -0.120538 0.606161 -0.000026
v -0.192960 0.520164 0.271402
v -0.335678 0.499671 0.067831
v -0.335678 0.499671 0.067831
v -0.192960 0.520164 0.271402
v -0.120538 0.606161 -0.000026
v -0.367801 0.312549 -0.383885
v -0.484914 0.322460 -0.163848
v -0.542642 0.104933 -0.271455
v -0.542642 0.104933 -0.271455
v -0.484914 0.322460 -0.163848
v -0.367801 0.312549 -0.383885
v -0.192960 0.520164 -0.271455
v -0.397493 0.426268 -0.163848
v -0.367801 0.312549 -0.383885
v -0.367801 0.312549 -0.383885
v -0.397493 0.426268 -0.163848
v -0.192960 0.520164 -0.271455
v -0.120538 0.606161 -0.000026
v -0.335678 0.499671 -0.067884
v -0.192960 0.520164 -0.271455
v -0.192960 0.520164 -0.271455
v -0.335678 0.499671 -0.067884
v -0.120538 0.606161 -0.000026
v -0.381818 0.146925 -0.327670
v -0.542642 0.104933 -0.271455
v -0.505449 0.000119 -0.135741
v -0.505449 0.000119 -0.135741
v -0.542642 0.104933 -0.271455
v -0.381818 0.146925 -0.327670
v -0.381818 0.146925 -0.327670
v -0.367801 0.312549 0.383832
v -0.206977 0.354541 0.327617
v -0.381818 0.146925 0.327617
v -0.381818 0.146925 0.327617
v -0.206977 0.354541 0.327617
v -0.367801 0.312549 0.383832
v -0.206977 0.354541 0.327617
v -0.000785 0.003470 -0.000026
v -0.381818 0.146925 -0.327670
v -0.505449 0.000119 -0.135741
v -0.505449 0.000119 -0.135741
v -0.381818 0.146925 -0.327670
v -0.000785 0.003470 -0.000026
v -0.206977 0.354541 0.327617
v -0.000785 0.003470 -0.000026
v -0.381818 0.146925 0.327617
v -0.381818 0.146925 0.327617
v -0.000785 0.003470 -0.000026
v -0.206977 0.354541 0.327617
v -0.192960 0.520164 0.271402
v -0.206977 0.354541 0.327617
v -0.367801 0.312549 0.383832
v -0.367801 0.312549 0.383832
v -0.206977 0.354541 0.327617
v -0.192960 0.520164 0.271402
v -0.120538 0.606161 -0.000026
v -0.083345 0.501347 0.135688
v -0.192960 0.520164 0.271402
v -0.192960 0.520164 0.271402
v -0.083345 0.501347 0.135688
v -0.120538 0.606161 -0.000026
v -0.083345 0.501347 0.135688
v -0.542642 0.104933 -0.271455
v -0.381818 0.146925 -0.327670
v -0.367801 0.312549 -0.383885
v -0.367801 0.312549 -0.383885
v -0.381818 0.146925 -0.327670
v -0.542642 0.104933 -0.271455
v -0.367801 0.312549 -0.383885
v -0.206977 0.354541 -0.327670
v -0.192960 0.520164 -0.271455
v -0.192960 0.520164 -0.271455
v -0.206977 0.354541 -0.327670
v -0.367801 0.312549 -0.383885
v -0.206977 0.354541 -0.327670
v -0.192960 0.520164 -0.271455
v -0.083345 0.501347 -0.135741
v -0.120538 0.606161 -0.000026
v -0.120538 0.606161 -0.000026
v -0.083345 0.501347 -0.135741
v -0.192960 0.520164 -0.271455
v -0.083345 0.501347 -0.135741
v -0.381818 0.146925 -0.327670
v -0.000785 0.003470 -0.000026
v -0.206977 0.354541 -0.327670
v -0.206977 0.354541 -0.327670
v -0.000785 0.003470 -0.000026
v -0.381818 0.146925 -0.327670
v -0.083345 0.501347 0.135688
v -0.000785 0.003470 -0.000026
v -0.206977 0.354541 0.327617
v -0.206977 0.354541 0.327617
v -0.000785 0.003470 -0.000026
v -0.083345 0.501347 0.135688
v -0.083345 0.501347 0.135688
v -0.206977 0.354541 0.327617
v -0.192960 0.520164 0.271402
v -0.192960 0.520164 0.271402
v -0.206977 0.354541 0.327617
v -0.083345 0.501347 0.135688
v -0.083345 0.501347 -0.135741
v -0.083345 0.501347 0.135688
v -0.120538 0.606161 -0.000026
v -0.120538 0.606161 -0.000026
v -0.083345 0.501347 0.135688
v -0.083345 0.501347 -0.135741
v -0.367801 0.312549 -0.383885
v -0.381818 0.146925 -0.327670
v -0.206977 0.354541 -0.327670
v -0.206977 0.354541 -0.327670
v -0.381818 0.146925 -0.327670
v -0.367801 0.312549 -0.383885
v -0.206977 0.354541 -0.327670
v -0.083345 0.501347 -0.135741
v -0.192960 0.520164 -0.271455
v -0.192960 0.520164 -0.271455
v -0.083345 0.501347 -0.135741
v -0.206977 0.354541 -0.327670
v -0.083345 0.501347 -0.135741
v -0.206977 0.354541 -0.327670
v -0.000785 0.003470 -0.000026
v -0.000785 0.003470 -0.000026
v -0.206977 0.354541 -0.327670
v -0.083345 0.501347 -0.135741
v -0.083345 0.501347 -0.135741
v -0.000785 0.003470 -0.000026
v -0.083345 0.501347 0.135688
v -0.083345 0.501347 0.135688
v -0.000785 0.003470 -0.000026
v -0.083345 0.501347 -0.135741
vn 0.9560 -0.2302 -0.1821
vn 0.9586 -0.2847 0.0000
vn 0.8832 -0.3742 -0.2827
vn 0.5951 0.7067 -0.3827
vn 0.7649 -0.6442 0.0000
vn 0.7649 -0.6441 0.0000
vn 0.9560 -0.2302 0.1821
vn 0.7900 -0.4272 -0.4397
vn 0.1692 0.9856 0.0000
vn 0.0064 0.7923 -0.6101
vn 0.5190 -0.8067 -0.2827
vn 0.7011 -0.5904 -0.3998
vn 0.8832 -0.3742 0.2827
vn 0.7011 -0.5904 0.3998
vn 0.5190 -0.8067 0.2827
vn 0.4436 -0.8962 0.0000
vn 0.5951 0.7067 0.3827
vn 0.2465 0.2927 -0.9239
vn -0.0066 1.0000 0.0000
vn -0.1501 0.8296 -0.5378
vn 0.5554 -0.7058 -0.4397
vn 0.3894 -0.9029 -0.1821
vn 0.7900 -0.4272 0.4397
vn 0.5554 -0.7058 0.4397
vn 0.3894 -0.9029 0.1821
vn 0.0064 0.7923 0.6101
vn -0.3866 0.3256 -0.8629
vn -0.1501 0.8296 0.5378
vn -0.4966 0.4182 -0.7606
vn -0.2465 -0.2927 -0.9239
vn -0.5951 -0.7067 -0.3827
vn 0.2465 0.2927 0.9239
vn -0.2465 -0.2927 0.9239
vn -0.5951 -0.7067 0.3827
vn -0.4966 0.4182 0.7606
vn -0.8430 0.0068 -0.5378
vn -0.7796 -0.1411 -0.6101
vn -0.9424 -0.3344 0.0000
vn -0.3866 0.3256 0.8629
vn -0.7796 -0.1411 0.6101
vn -0.8430 0.0068 0.5378
vn -0.9865 -0.1636 0.0000
vn -0.9560 0.2302 0.1821
vn -0.9586 0.2847 0.0000
vn -0.8832 0.3742 0.2827
vn -0.7649 0.6442 0.0000
vn -0.7649 0.6441 0.0000
vn -0.9560 0.2302 -0.1821
vn -0.7900 0.4272 0.4397
vn -0.1692 -0.9856 0.0000
vn -0.0064 -0.7923 0.6101
vn -0.5190 0.8067 0.2827
vn -0.7011 0.5904 0.3998
vn -0.8832 0.3742 -0.2827
vn -0.7011 0.5904 -0.3998
vn -0.5190 0.8067 -0.2827
vn -0.4436 0.8962 0.0000
vn 0.0066 -1.0000 0.0000
vn 0.1501 -0.8296 0.5378
vn -0.5554 0.7058 0.4397
vn -0.3894 0.9029 0.1821
vn -0.7900 0.4272 -0.4397
vn -0.5554 0.7058 -0.4397
vn -0.3894 0.9029 -0.1821
vn -0.0064 -0.7923 -0.6101
vn 0.3866 -0.3256 0.8629
vn 0.1501 -0.8296 -0.5378
vn 0.4966 -0.4182 0.7606
vn 0.4966 -0.4182 -0.7606
vn 0.8430 -0.0068 0.5378
vn 0.7796 0.1411 0.6101
vn 0.9424 0.3344 0.0000
vn 0.3866 -0.3256 -0.8629
vn 0.7796 0.1411 -0.6101
vn 0.8430 -0.0068 -0.5378
vn 0.9865 0.1636 0.0000
usemtl material
s off
f 1//1 2//1 3//1
f 10//2 11//2 12//2
f 17//3 18//3 19//3
f 24//4 25//4 26//4
f 31//5 32//5 33//5
f 32//6 31//6 34//6
f 34//5 31//5 35//5
f 34//5 35//5 36//5
f 36//5 35//5 37//5
f 36//5 37//5 38//5
f 52//7 53//7 54//7
f 59//8 60//8 61//8
f 66//9 67//9 68//9
f 73//10 74//10 75//10
f 80//11 81//11 82//11
f 87//12 88//12 89//12
f 93//13 94//13 95//13
f 99//14 100//14 101//14
f 106//15 107//15 108//15
f 113//16 114//16 115//16
f 120//17 121//17 122//17
f 126//18 127//18 128//18
f 132//19 133//19 134//19
f 139//20 140//20 141//20
f 145//21 146//21 147//21
f 151//22 152//22 153//22
f 157//23 158//23 159//23
f 163//24 164//24 165//24
f 169//25 170//25 171//25
f 175//26 176//26 177//26
f 182//27 183//27 184//27
f 189//28 190//28 191//28
f 195//29 196//29 197//29
f 201//30 202//30 203//30
f 207//31 208//31 209//31
f 214//32 215//32 216//32
f 220//33 221//33 222//33
f 227//34 228//34 229//34
f 234//35 235//35 236//35
f 240//36 241//36 242//36
f 246//37 247//37 248//37
f 252//38 253//38 254//38
f 258//39 259//39 260//39
f 264//40 265//40 266//40
f 270//41 271//41 272//41
f 276//42 277//42 278//42
usemtl _0020_Red
f 4//43 5//43 6//43
f 13//44 14//44 15//44
f 20//45 21//45 22//45
f 27//34 28//34 29//34
f 39//46 40//46 41//46
f 40//46 42//46 41//46
f 41//46 42//46 43//46
f 42//46 44//46 43//46
f 43//47 44//47 45//47
f 46//46 45//46 44//46
f 55//48 56//48 57//48
f 62//49 63//49 64//49
f 69//50 70//50 71//50
f 76//51 77//51 78//51
f 83//52 84//52 85//52
f 90//53 91//53 92//53
f 96//54 97//54 98//54
f 102//55 103//55 104//55
f 109//56 110//56 111//56
f 116//57 117//57 118//57
f 123//31 124//31 125//31
f 129//33 130//33 131//33
f 135//58 136//58 137//58
f 142//59 143//59 144//59
f 148//60 149//60 150//60
f 154//61 155//61 156//61
f 160//62 161//62 162//62
f 166//63 167//63 168//63
f 172//64 173//64 174//64
f 178//65 179//65 180//65
f 185//66 186//66 187//66
f 192//67 193//67 194//67
f 198//68 199//68 200//68
f 204//32 205//32 206//32
f 210//17 211//17 212//17
f 217//30 218//30 219//30
f 223//18 224//18 225//18
f 230//4 231//4 232//4
f 237//69 238//69 239//69
f 243//70 244//70 245//70
f 249//71 250//71 251//71
f 255//72 256//72 257//72
f 261//73 262//73 263//73
f 267//74 268//74 269//74
f 273//75 274//75 275//75
f 279//76 280//76 281//76
l 7 8
l 8 9
l 9 7
l 16 8
l 7 16
l 8 23
l 9 23
l 7 30
l 30 9
l 47 48
l 23 47
l 49 16
l 50 49
l 51 50
l 48 51
l 58 16
l 7 58
l 65 23
l 65 9
l 72 30
l 72 7
l 9 79
l 86 47
l 86 48
l 65 47
l 58 49
l 105 49
l 105 50
l 50 112
l 112 51
l 119 51
l 119 48
l 58 72
l 65 79
l 138 30
l 138 72
l 79 138
l 86 65
l 119 86
l 58 105
l 105 112
l 112 119
l 181 72
l 181 58
l 65 188
l 79 188
l 181 138
l 188 86
l 86 213
l 213 119
l 105 181
l 112 226
l 226 105
l 119 233
l 233 112
l 138 226
l 226 181
l 138 213
l 188 213
l 233 226
l 233 138
l 30 79
l 138 188
l 213 233
