# Blender v2.78 (sub 0) OBJ File: ''
# www.blender.org
mtllib lamp2.mtl
o Box003
v -1.595091 5.098844 -2.048692
v -1.595091 5.098844 -1.653799
v -2.008966 5.098844 -1.653799
v -2.008966 5.098844 -2.048692
v -1.595091 7.876687 -2.048691
v -2.008966 7.876687 -2.048691
v -2.008966 7.876687 -1.653798
v -1.595091 7.876687 -1.653798
v -0.997167 0.069100 0.974923
v -0.997167 0.069100 1.982438
v -1.985195 0.069100 1.982438
v -1.985195 0.069100 0.974923
v -0.009374 0.069100 0.974923
v -0.009374 0.069100 1.982438
v 0.978536 0.069100 0.974923
v 0.978536 0.069100 1.982438
v 1.966447 0.069100 0.974923
v 1.966447 0.069100 1.982438
v -0.997167 0.069100 -0.032710
v -1.985195 0.069100 -0.032710
v -0.009374 0.069100 -0.032710
v 0.978536 0.069100 -0.032710
v 1.966447 0.069100 -0.032710
v -0.997167 0.069100 -1.040225
v -1.985195 0.069100 -1.040225
v -0.009374 0.069100 -1.040225
v 0.978536 0.069100 -1.040225
v 1.966447 0.069100 -1.040225
v -0.997167 0.069100 -2.047859
v -1.985195 0.069100 -2.047859
v -0.009374 0.069100 -2.047859
v 0.978536 0.069100 -2.047859
v 1.966447 0.069100 -2.047859
v -0.997167 5.095438 1.982440
v -0.997167 4.435783 0.974925
v -1.985195 5.095440 0.974925
v -1.985195 5.095438 1.982440
v -0.009374 4.435783 0.974925
v -0.009374 5.095438 1.982440
v 0.978536 4.435783 0.974925
v 0.978536 5.095438 1.982440
v 1.966447 5.095438 1.982440
v 1.966447 5.095440 0.974925
v -0.997167 4.435783 -0.032709
v -1.985195 5.095440 -0.032709
v -0.009374 4.435783 -0.032709
v 0.978536 4.435783 -0.032709
v 1.966447 5.095440 -0.032709
v -0.997167 4.435783 -1.040223
v -1.985195 5.095440 -1.040223
v -0.009374 4.435783 -1.040223
v 0.978536 4.435783 -1.040223
v 1.966447 5.095440 -1.040223
v -0.997167 5.095440 -2.047857
v -1.985195 5.095440 -2.047857
v -0.009374 5.095440 -2.047857
v 0.978536 5.095440 -2.047857
v 1.966447 5.095440 -2.047857
v -0.997167 1.325660 0.974924
v -1.244174 1.325660 1.219256
v -0.009374 1.325660 0.843571
v 0.978536 1.325660 0.974924
v 1.225543 1.325660 1.219256
v -0.997167 2.582220 0.974924
v -1.244174 2.582220 1.219257
v -0.009374 2.582220 0.843571
v 0.978536 2.582220 0.974924
v -0.997167 3.838880 0.974925
v -1.244174 3.838880 1.219258
v -0.009374 3.838880 0.843572
v 0.978536 3.838880 0.974925
v 1.225543 3.838880 1.219258
v 0.855092 1.325660 -0.032710
v 0.978536 1.325660 -1.040225
v 1.225543 1.325660 -1.284677
v 1.225543 2.582220 1.219257
v 0.855092 2.582220 -0.032710
v 0.978536 2.582220 -1.040223
v 1.225543 2.582220 -1.284675
v 0.855092 3.838880 -0.032709
v 0.978536 3.838880 -1.040223
v 1.225543 3.838880 -1.284675
v -0.009374 1.325660 -0.908991
v -0.997167 1.325660 -1.040225
v -1.244174 1.325660 -1.284677
v -0.009374 2.582220 -0.908991
v -0.997167 2.582220 -1.040223
v -0.009374 3.838880 -0.908990
v -0.997167 3.838880 -1.040223
v -1.244174 3.838880 -1.284675
v -0.873722 1.325660 -0.032710
v -1.244174 2.582220 -1.284675
v -0.873722 2.582220 -0.032710
v -0.873722 3.838880 -0.032709
v 1.966447 5.098844 -2.048692
v 1.966447 5.098844 -1.653799
v 1.552690 5.098844 -1.653799
v 1.552690 5.098844 -2.048692
v 1.966447 7.876687 -2.048691
v 1.552690 7.876687 -2.048691
v 1.552690 7.876687 -1.653798
v 1.966447 7.876687 -1.653798
v -1.595091 5.098843 1.588382
v -1.595091 5.098843 1.983275
v -2.008966 5.098843 1.983275
v -2.008966 5.098843 1.588382
v -1.595091 7.876685 1.588382
v -2.008966 7.876685 1.588382
v -2.008966 7.876685 1.983275
v -1.595091 7.876685 1.983275
v 1.966447 5.098843 1.588382
v 1.966447 5.098843 1.983275
v 1.552690 5.098843 1.983275
v 1.552690 5.098843 1.588382
v 1.966447 7.876685 1.588382
v 1.552690 7.876685 1.588382
v 1.552690 7.876685 1.983275
v 1.966447 7.876685 1.983275
v 1.947030 7.869482 -2.041295
v 1.947030 7.869480 1.975879
v -2.015439 7.869480 1.975879
v -2.015439 7.869482 -2.041295
v 1.947030 8.063244 -2.041295
v -2.015439 8.063244 -2.041295
v -2.015439 8.063243 1.975879
v 1.947030 8.063243 1.975879
vn 0.0000 -1.0000 0.0000
vn 0.0000 1.0000 0.0000
vn 0.0000 -0.0000 1.0000
vn 1.0000 0.0000 0.0000
vn 0.0000 0.0000 -1.0000
vn -1.0000 0.0000 0.0000
vn -0.0218 0.9014 -0.4325
vn 0.1632 0.9730 -0.1634
vn 0.4392 0.8981 0.0238
vn 0.2184 0.9519 -0.2150
vn 0.0000 0.9767 -0.2148
vn -0.0000 0.9069 -0.4214
vn -0.2117 0.9550 -0.2079
vn -0.1080 0.9433 -0.3139
vn 0.0596 0.9962 0.0632
vn -0.3215 0.9410 -0.1060
vn 0.2191 0.9757 0.0000
vn 0.4293 0.9031 -0.0000
vn -0.2191 0.9757 -0.0000
vn -0.4293 0.9032 0.0000
vn 0.2112 0.9550 0.2084
vn 0.3215 0.9410 0.1060
vn 0.0000 0.9767 0.2147
vn -0.1656 0.9730 0.1609
vn -0.4392 0.8981 -0.0238
vn 0.1080 0.9433 0.3140
vn -0.0596 0.9962 -0.0632
vn 0.0000 0.9069 0.4214
vn 0.0217 0.9014 0.4324
vn -0.2184 0.9519 0.2150
vn 0.0134 0.7480 0.6636
vn 0.3523 0.3366 0.8733
vn 0.6990 0.0784 0.7108
vn 0.0942 0.6871 0.7204
vn -0.0171 0.7653 0.6434
vn -0.0085 0.4085 0.9127
vn -0.0386 0.6927 0.7202
vn -0.3816 0.3865 0.8396
vn 0.0013 0.6379 0.7701
vn -0.5643 0.4407 0.6981
vn 0.4427 0.0000 0.8967
vn 0.7032 -0.0000 0.7109
vn 0.7033 0.0118 0.7108
vn 0.3618 0.2843 0.8878
vn 0.4381 0.0000 0.8989
vn -0.4381 -0.0000 0.8989
vn 0.3926 -0.3364 0.8560
vn 0.5744 -0.3703 0.7300
vn 0.0076 -0.4086 0.9127
vn 0.3816 -0.3865 0.8396
vn -0.3905 -0.3747 0.8409
vn 0.5644 -0.4407 0.6981
vn 0.0386 -0.6927 0.7202
vn -0.0013 -0.6379 0.7701
vn 0.0171 -0.7653 0.6434
vn -0.0560 -0.7061 0.7059
vn -0.5643 -0.4407 0.6981
vn 0.0013 -0.6379 0.7701
vn 0.6716 0.7408 -0.0105
vn 0.8752 0.3277 -0.3557
vn 0.7025 0.0467 -0.7102
vn 0.7283 0.6787 -0.0947
vn 0.6521 0.7579 0.0165
vn 0.9145 0.4045 0.0081
vn 0.7285 0.6840 0.0377
vn 0.8405 0.3789 0.3872
vn 0.7782 0.6280 -0.0048
vn 0.6958 0.4280 0.5768
vn 0.8988 -0.0000 -0.4383
vn 0.7032 0.0000 -0.7109
vn 0.7033 -0.0118 -0.7108
vn 0.8918 0.2802 -0.3553
vn 0.8965 0.0000 -0.4430
vn 0.8965 0.0000 0.4430
vn 0.7034 -0.0000 0.7108
vn 0.8988 0.0000 0.4383
vn 0.8591 0.3333 0.3883
vn 0.7277 0.3648 0.5808
vn 0.8592 -0.3333 -0.3883
vn 0.7277 -0.3648 -0.5808
vn 0.9145 -0.4045 -0.0075
vn 0.8406 -0.3788 -0.3872
vn 0.8752 -0.3277 0.3557
vn 0.8918 -0.2802 0.3553
vn 0.6958 -0.4279 -0.5768
vn 0.7285 -0.6840 -0.0377
vn 0.7782 -0.6279 0.0047
vn 0.6521 -0.7579 -0.0165
vn 0.6716 -0.7408 0.0103
vn 0.7024 -0.0467 0.7102
vn 0.7283 -0.6787 0.0947
vn -0.0135 0.7480 -0.6636
vn -0.3523 0.3366 -0.8733
vn -0.6990 0.0785 -0.7108
vn -0.0943 0.6872 -0.7204
vn 0.0171 0.7653 -0.6434
vn 0.0085 0.4085 -0.9127
vn 0.0386 0.6927 -0.7202
vn 0.3816 0.3865 -0.8396
vn -0.0013 0.6379 -0.7701
vn 0.5643 0.4407 -0.6981
vn -0.4381 -0.0000 -0.8989
vn 0.4381 -0.0000 -0.8989
vn -0.0076 -0.4085 -0.9127
vn -0.3816 -0.3865 -0.8396
vn 0.3523 -0.3366 -0.8733
vn -0.5644 -0.4407 -0.6981
vn -0.0386 -0.6927 -0.7202
vn 0.0013 -0.6379 -0.7701
vn -0.0171 -0.7653 -0.6434
vn 0.0134 -0.7480 -0.6636
vn 0.6990 -0.0784 -0.7109
vn 0.0942 -0.6872 -0.7204
vn -0.6958 0.4279 0.5768
vn -0.7782 0.6280 -0.0048
vn -0.7150 0.6970 0.0544
vn -0.8418 0.3674 0.3955
vn -0.6521 0.7579 -0.0165
vn -0.9145 0.4045 -0.0081
vn -0.7285 0.6840 -0.0376
vn -0.8406 0.3788 -0.3872
vn -0.7783 0.6279 0.0047
vn -0.6958 0.4280 -0.5768
vn -0.8988 0.0000 0.4383
vn -0.7034 -0.0000 0.7108
vn -0.7277 0.3648 0.5808
vn -0.8599 0.3215 0.3965
vn -0.8965 0.0000 0.4430
vn -0.8965 -0.0000 -0.4430
vn -0.8591 -0.3333 0.3883
vn -0.7277 -0.3648 0.5808
vn -0.9145 -0.4045 0.0075
vn -0.8405 -0.3789 0.3872
vn -0.8752 -0.3277 -0.3558
vn -0.7285 -0.6840 0.0377
vn -0.7782 -0.6280 -0.0048
vn -0.6958 -0.4279 0.5768
vn -0.6521 -0.7579 0.0165
vn -0.6716 -0.7408 -0.0105
vn -0.7025 -0.0467 -0.7102
vn -0.7283 -0.6787 -0.0947
usemtl None
s 1
f 1//1 2//1 3//1 4//1
f 5//2 6//2 7//2 8//2
f 8//3 7//3 3//3 2//3
f 5//4 8//4 2//4 1//4
f 6//5 5//5 1//5 4//5
f 7//6 6//6 4//6 3//6
f 9//1 10//1 11//1 12//1
f 13//1 14//1 10//1 9//1
f 15//1 16//1 14//1 13//1
f 17//1 18//1 16//1 15//1
f 19//1 9//1 12//1 20//1
f 21//1 13//1 9//1 19//1
f 22//1 15//1 13//1 21//1
f 23//1 17//1 15//1 22//1
f 24//1 19//1 20//1 25//1
f 26//1 21//1 19//1 24//1
f 27//1 22//1 21//1 26//1
f 28//1 23//1 22//1 27//1
f 29//1 24//1 25//1 30//1
f 31//1 26//1 24//1 29//1
f 32//1 27//1 26//1 31//1
f 33//1 28//1 27//1 32//1
f 34//7 35//8 36//9 37//10
f 38//11 35//8 34//7 39//12
f 40//13 38//11 39//12 41//14
f 41//14 42//15 43//16 40//13
f 44//17 45//18 36//9 35//8
f 46//2 44//17 35//8 38//11
f 47//19 46//2 38//11 40//13
f 48//20 47//19 40//13 43//16
f 49//21 50//22 45//18 44//17
f 51//23 49//21 44//17 46//2
f 52//24 51//23 46//2 47//19
f 53//25 52//24 47//19 48//20
f 50//22 49//21 54//26 55//27
f 56//28 54//26 49//21 51//23
f 57//29 56//28 51//23 52//24
f 53//25 58//30 57//29 52//24
f 10//31 59//32 60//33 11//34
f 14//35 61//36 59//32 10//31
f 14//35 16//37 62//38 61//36
f 16//37 18//39 63//40 62//38
f 64//41 65//42 60//43 59//44
f 66//3 64//45 59//32 61//36
f 67//46 66//3 61//36 62//38
f 68//47 69//48 65//42 64//41
f 70//49 68//50 64//45 66//3
f 71//51 70//49 66//3 67//46
f 69//52 68//50 34//53 37//54
f 68//50 70//49 39//55 34//53
f 71//51 41//56 39//55 70//49
f 41//56 71//51 72//57 42//58
f 17//59 62//60 63//61 18//62
f 23//63 73//64 62//60 17//59
f 23//63 28//65 74//66 73//64
f 28//65 33//67 75//68 74//66
f 67//69 76//70 63//71 62//72
f 77//4 67//73 62//60 73//64
f 78//74 77//4 73//64 74//66
f 79//75 78//76 74//77 75//78
f 71//79 72//80 76//70 67//69
f 80//81 71//82 67//73 77//4
f 81//83 80//81 77//4 78//74
f 82//43 81//84 78//76 79//75
f 72//85 71//82 43//86 42//87
f 71//82 80//81 48//88 43//86
f 81//83 53//89 48//88 80//81
f 82//90 58//91 53//89 81//83
f 32//92 74//93 75//94 33//95
f 31//96 83//97 74//93 32//92
f 31//96 29//98 84//99 83//97
f 29//98 30//100 85//101 84//99
f 86//5 78//102 74//93 83//97
f 87//103 86//5 83//97 84//99
f 88//104 81//105 78//102 86//5
f 89//106 88//104 86//5 87//103
f 82//107 81//105 57//108 58//109
f 81//105 88//104 56//110 57//108
f 89//106 54//111 56//110 88//104
f 90//112 55//113 54//111 89//106
f 85//114 30//115 25//116 84//117
f 20//118 91//119 84//117 25//116
f 20//118 12//120 59//121 91//119
f 12//120 11//122 60//123 59//121
f 87//124 92//125 85//126 84//127
f 93//6 87//128 84//117 91//119
f 64//129 93//6 91//119 59//121
f 89//130 90//131 92//125 87//124
f 94//132 89//133 87//128 93//6
f 68//134 94//132 93//6 64//129
f 50//135 55//136 90//137 89//133
f 89//133 94//132 45//138 50//135
f 68//134 36//139 45//138 94//132
f 69//140 37//141 36//139 68//134
f 95//1 96//1 97//1 98//1
f 99//2 100//2 101//2 102//2
f 102//3 101//3 97//3 96//3
f 99//4 102//4 96//4 95//4
f 100//5 99//5 95//5 98//5
f 101//6 100//6 98//6 97//6
f 103//1 104//1 105//1 106//1
f 107//2 108//2 109//2 110//2
f 110//3 109//3 105//3 104//3
f 107//4 110//4 104//4 103//4
f 108//5 107//5 103//5 106//5
f 109//6 108//6 106//6 105//6
f 111//1 112//1 113//1 114//1
f 115//2 116//2 117//2 118//2
f 118//3 117//3 113//3 112//3
f 115//4 118//4 112//4 111//4
f 116//5 115//5 111//5 114//5
f 117//6 116//6 114//6 113//6
f 119//1 120//1 121//1 122//1
f 123//2 124//2 125//2 126//2
f 126//3 125//3 121//3 120//3
f 123//4 126//4 120//4 119//4
f 124//5 123//5 119//5 122//5
f 125//6 124//6 122//6 121//6
